<?xml version="1.0" encoding="utf-8"?>
<!-- Generator: Adobe Illustrator 16.0.0, SVG Export Plug-In . SVG Version: 6.00 Build 0)  -->
<!DOCTYPE svg PUBLIC "-//W3C//DTD SVG 1.1//EN" "http://www.w3.org/Graphics/SVG/1.1/DTD/svg11.dtd">
<svg version="1.1" id="Layer_1" xmlns="http://www.w3.org/2000/svg" xmlns:xlink="http://www.w3.org/1999/xlink" x="0px" y="0px"
	 width="128px" height="128px" viewBox="0 0 128 128" enable-background="new 0 0 128 128" xml:space="preserve">
<g>
	<g>
		<g>
			<polygon fill="#282D33" points="11.516,111.161 0,104.445 58.17,2.725 91.246,22.007 70.388,58.481 66.907,56.492 85.793,23.469 
				59.643,8.224 5.453,102.985 13.535,107.699 			"/>
		</g>
		<g>
			<g>
				
					<rect x="29.307" y="66.519" transform="matrix(0.8785 0.4777 -0.4777 0.8785 37.2307 -9.3519)" fill="#282D33" width="15.391" height="4.009"/>
			</g>
			<g>
				
					<rect x="39.601" y="49.81" transform="matrix(0.8639 0.5036 -0.5036 0.8639 33.1881 -19.2115)" fill="#282D33" width="25.095" height="4.009"/>
			</g>
			<g>
				
					<rect x="50.667" y="30.459" transform="matrix(0.8639 0.5036 -0.5036 0.8639 24.9491 -27.417)" fill="#282D33" width="25.094" height="4.009"/>
			</g>
		</g>
	</g>
	<g>
		<g>
			<polygon fill="#282D33" points="11.243,107.514 3.415,93.819 104.184,35.083 123.271,68.465 85.963,90.21 83.945,86.747 
				117.817,67.003 102.709,40.582 8.868,95.281 14.723,105.525 			"/>
		</g>
		<g>
			<g>
				
					<rect x="45.47" y="79.241" transform="matrix(0.4964 0.8681 -0.8681 0.4964 97.1736 -5.0246)" fill="#282D33" width="14.896" height="4.009"/>
			</g>
			<g>
				
					<rect x="62.039" y="72.549" transform="matrix(0.4963 0.8681 -0.8681 0.4963 102.3195 -27.2544)" fill="#282D33" width="25.218" height="4.009"/>
			</g>
			<g>
				
					<rect x="81.205" y="61.377" transform="matrix(0.4964 0.8681 -0.8681 0.4964 102.2655 -49.5202)" fill="#282D33" width="25.217" height="4.009"/>
			</g>
		</g>
	</g>
	<g>
		<g>
			<path fill="#282D33" d="M128,125.275H11.634V86.742H128V125.275z M15.643,121.267h108.348V90.751H15.643V121.267z"/>
		</g>
		<g>
			<g>
				<rect x="36.603" y="93.37" fill="#282D33" width="4.008" height="25.275"/>
			</g>
			<g>
				<rect x="58.732" y="93.37" fill="#282D33" width="4.009" height="25.275"/>
			</g>
			<g>
				<rect x="80.864" y="93.37" fill="#282D33" width="4.009" height="25.275"/>
			</g>
			<g>
				<rect x="102.995" y="93.37" fill="#282D33" width="4.009" height="25.275"/>
			</g>
		</g>
	</g>
	<g>
		<rect x="20.56" y="104.004" fill="#282D33" width="4.579" height="4.009"/>
	</g>
</g>
</svg>
